<svg xmlns="http://www.w3.org/2000/svg" version="1.1" xmlns:xlink="http://www.w3.org/1999/xlink" xmlns:svgjs="http://svgjs.dev/svgjs" width="1440" height="720" preserveAspectRatio="none" viewBox="0 0 1440 720"><g mask="url(&quot;#SvgjsMask1024&quot;)" fill="none"><rect width="1440" height="720" x="0" y="0" fill="#1e3266"></rect><path d="M1536 720L0 720 L0 375.61Q96.17 351.78, 120 447.96Q142.84 398.8, 192 421.65Q274.67 384.31, 312 466.98Q353.61 436.59, 384 478.2Q391.29 413.49, 456 420.78Q501.15 345.93, 576 391.09Q658.31 353.39, 696 435.7Q755.27 422.97, 768 482.24Q771.33 413.56, 840 416.89Q848.52 353.41, 912 361.94Q981.69 311.63, 1032 381.33Q1105.79 335.12, 1152 408.9Q1239.53 376.43, 1272 463.96Q1314.29 434.25, 1344 476.54Q1362.55 423.09, 1416 441.63Q1470.97 376.61, 1536 431.58z" fill="#182f5d"></path><path d="M1560 720L0 720 L0 470.45Q77.22 427.67, 120 504.9Q180.53 493.43, 192 553.96Q238.01 479.97, 312 525.98Q333.95 475.94, 384 497.89Q400.89 442.78, 456 459.68Q521.99 405.67, 576 471.66Q661.78 437.44, 696 523.21Q770.22 477.43, 816 551.65Q827.53 491.18, 888 502.72Q906.57 449.29, 960 467.85Q1029.69 417.55, 1080 487.24Q1160.32 447.56, 1200 527.88Q1267.07 474.95, 1320 542.02Q1364.11 466.13, 1440 510.24Q1493.06 443.3, 1560 496.36z" fill="#25467d"></path><path d="M1464 720L0 720 L0 555.66Q50.02 533.68, 72 583.7Q144.42 584.12, 144 656.54Q182.74 575.27, 264 614.01Q283.73 561.74, 336 581.46Q363.75 537.22, 408 564.97Q504.01 540.98, 528 636.99Q602.07 591.06, 648 665.12Q648.98 594.1, 720 595.08Q765.22 520.3, 840 565.52Q907.1 512.62, 960 579.71Q1054.88 554.59, 1080 649.47Q1104.31 601.78, 1152 626.09Q1200.6 554.68, 1272 603.28Q1359.6 570.88, 1392 658.47Q1420.9 615.38, 1464 644.28z" fill="#356cb1"></path><path d="M1464 720L0 720 L0 723.29Q19.72 671, 72 690.72Q113.91 660.63, 144 702.55Q176.85 615.39, 264 648.24Q306.44 618.68, 336 661.13Q410.81 615.94, 456 690.76Q524.98 639.74, 576 708.71Q632.89 693.61, 648 750.5Q650.91 681.41, 720 684.32Q733.87 626.19, 792 640.06Q838.7 614.75, 864 661.45Q933.62 659.07, 936 728.69Q959.16 679.86, 1008 703.02Q1011.47 634.49, 1080 637.96Q1147.2 633.16, 1152 700.36Q1177.85 654.21, 1224 680.06Q1321.95 658.01, 1344 755.97Q1353.86 645.83, 1464 655.69z" fill="white"></path></g><defs><mask id="SvgjsMask1024"><rect width="1440" height="720" fill="#ffffff"></rect></mask></defs></svg>