<svg xmlns="http://www.w3.org/2000/svg" version="1.1" xmlns:xlink="http://www.w3.org/1999/xlink" xmlns:svgjs="http://svgjs.dev/svgjs" width="1440" height="560" preserveAspectRatio="none" viewBox="0 0 1440 560"><g clip-path="url(&quot;#SvgjsClipPath1000&quot;)" fill="none"><rect width="1440" height="560" x="0" y="0" fill="#0e2a47"></rect><circle r="93.335" cx="-91.49" cy="20.11" stroke="#365aa3" stroke-opacity="0.25" stroke-width="2"></circle><circle r="93.335" cx="292.03" cy="302.72" stroke="#365aa3" stroke-opacity="0.25" stroke-width="2"></circle><circle r="93.335" cx="716.23" cy="700.83" stroke="#365aa3" stroke-opacity="0.25" stroke-width="2"></circle><circle r="81.45" cx="247.1" cy="159.8" stroke="#365aa3" stroke-opacity="0.25" stroke-width="2"></circle><circle r="153.235" cx="284.25" cy="308.79" stroke="#365aa3" stroke-opacity="0.25" stroke-width="2"></circle><circle r="51.505" cx="872.88" cy="14.89" stroke="#365aa3" stroke-opacity="0.25" stroke-width="2"></circle><circle r="80.345" cx="1237.2" cy="385.7" stroke="#365aa3" stroke-opacity="0.25" stroke-width="2"></circle><circle r="181.97" cx="1200.33" cy="271.21" stroke="#365aa3" stroke-opacity="0.25" stroke-width="2"></circle><circle r="61.89" cx="878.02" cy="241.8" stroke="#365aa3" stroke-opacity="0.25" stroke-width="2"></circle><circle r="142.825" cx="290.11" cy="465.23" stroke="#365aa3" stroke-opacity="0.25" stroke-width="2"></circle><circle r="173.71" cx="232.98" cy="258.19" stroke="#365aa3" stroke-opacity="0.25" stroke-width="2"></circle><circle r="156.935" cx="418.96" cy="401.59" stroke="#365aa3" stroke-opacity="0.25" stroke-width="2"></circle><circle r="50.115" cx="1334.15" cy="74.24" stroke="#365aa3" stroke-opacity="0.25" stroke-width="2"></circle><circle r="99.995" cx="673.99" cy="523.01" stroke="#365aa3" stroke-opacity="0.25" stroke-width="2"></circle><circle r="60.595" cx="1175.91" cy="162.21" stroke="#365aa3" stroke-opacity="0.25" stroke-width="2"></circle><circle r="94.155" cx="847.38" cy="436.07" stroke="#365aa3" stroke-opacity="0.25" stroke-width="2"></circle><circle r="164.46" cx="314.94" cy="148.22" stroke="#365aa3" stroke-opacity="0.25" stroke-width="2"></circle><circle r="70.57" cx="171.56" cy="526.36" stroke="#365aa3" stroke-opacity="0.25" stroke-width="2"></circle><circle r="163.4" cx="975.12" cy="377.1" stroke="#365aa3" stroke-opacity="0.25" stroke-width="2"></circle><circle r="110.86" cx="1188.26" cy="523.61" stroke="#365aa3" stroke-opacity="0.25" stroke-width="2"></circle><circle r="128.22" cx="229.92" cy="476.25" stroke="#365aa3" stroke-opacity="0.25" stroke-width="2"></circle><circle r="119.095" cx="862.73" cy="81.17" stroke="#365aa3" stroke-opacity="0.25" stroke-width="2"></circle><circle r="159.2" cx="802.14" cy="4.31" stroke="#365aa3" stroke-opacity="0.25" stroke-width="2"></circle><circle r="171.56" cx="813.47" cy="229.7" stroke="#365aa3" stroke-opacity="0.25" stroke-width="2"></circle><circle r="69.845" cx="789.1" cy="507.77" stroke="#365aa3" stroke-opacity="0.25" stroke-width="2"></circle><circle r="117.97" cx="592.06" cy="282.8" stroke="#365aa3" stroke-opacity="0.25" stroke-width="2"></circle><circle r="164.775" cx="534.14" cy="71.1" stroke="#365aa3" stroke-opacity="0.25" stroke-width="2"></circle><circle r="152.295" cx="374.89" cy="180.4" stroke="#365aa3" stroke-opacity="0.25" stroke-width="2"></circle><circle r="94.265" cx="906.61" cy="497.32" stroke="#365aa3" stroke-opacity="0.25" stroke-width="2"></circle><circle r="143.65" cx="397.75" cy="99.22" stroke="#365aa3" stroke-opacity="0.25" stroke-width="2"></circle><circle r="95.415" cx="683.31" cy="21.84" stroke="#365aa3" stroke-opacity="0.25" stroke-width="2"></circle><circle r="90.125" cx="923.84" cy="545.59" stroke="#365aa3" stroke-opacity="0.25" stroke-width="2"></circle><circle r="149.775" cx="641.82" cy="282.03" stroke="#365aa3" stroke-opacity="0.25" stroke-width="2"></circle><circle r="180.455" cx="1287.07" cy="115.9" stroke="#365aa3" stroke-opacity="0.25" stroke-width="2"></circle><circle r="93.435" cx="1176.95" cy="335.26" stroke="#365aa3" stroke-opacity="0.25" stroke-width="2"></circle><circle r="64.565" cx="1421.52" cy="79.59" stroke="#365aa3" stroke-opacity="0.25" stroke-width="2"></circle><circle r="169.605" cx="483.52" cy="206.85" stroke="#365aa3" stroke-opacity="0.25" stroke-width="2"></circle><circle r="151.44" cx="1353.98" cy="317.99" stroke="#365aa3" stroke-opacity="0.25" stroke-width="2"></circle><circle r="136.635" cx="1315.8" cy="304.24" stroke="#365aa3" stroke-opacity="0.25" stroke-width="2"></circle><circle r="180.835" cx="795.76" cy="446" stroke="#365aa3" stroke-opacity="0.25" stroke-width="2"></circle></g><defs><clipPath id="SvgjsClipPath1000"><rect width="1440" height="560" x="0" y="0"></rect></clipPath></defs></svg>